HIERARCHY
ROOT Hips
{
	OFFSET 0.000000 0.000000 0.000000
	CHANNELS 6 Xposition Yposition Zposition Xrotation Yrotation Zrotation
	JOINT LeftUpLeg_virtual
	{
		OFFSET 0.000000 0.000000 0.000000
		CHANNELS 3 Xrotation Yrotation Zrotation
		JOINT LeftUpLeg
		{
			OFFSET 10.205400 -3.823500 0.155100
			CHANNELS 3 Xrotation Yrotation Zrotation
			JOINT LeftLeg
			{
				OFFSET 0.708757 -12.982077 0.567790
				CHANNELS 3 Xrotation Yrotation Zrotation
				JOINT LeftFoot
				{
					OFFSET -0.708756 -10.717838 -2.184338
					CHANNELS 3 Xrotation Yrotation Zrotation
					JOINT LeftToeBase
					{
						OFFSET 0.108149 -7.191104 7.560241
						CHANNELS 3 Xrotation Yrotation Zrotation
						JOINT LeftToe_End
						{
							OFFSET 0.070230 0.081724 4.490308
							CHANNELS 3 Xrotation Yrotation Zrotation
							End Site
							{
								OFFSET 0 0 0
							}
						}
					}
				}
			}
		}
	}
	JOINT RightUpLeg_virtual
	{
		OFFSET 0.000000 0.000000 0.000000
		CHANNELS 3 Xrotation Yrotation Zrotation
		JOINT RightUpLeg
		{
			OFFSET -10.205400 -3.823500 0.005500
			CHANNELS 3 Xrotation Yrotation Zrotation
			JOINT RightLeg
			{
				OFFSET -0.708756 -12.982134 0.610632
				CHANNELS 3 Xrotation Yrotation Zrotation
				JOINT RightFoot
				{
					OFFSET 0.708754 -10.717769 -1.945823
					CHANNELS 3 Xrotation Yrotation Zrotation
					JOINT RightToeBase
					{
						OFFSET -0.108140 -7.191069 7.372968
						CHANNELS 3 Xrotation Yrotation Zrotation
						JOINT RightToe_End
						{
							OFFSET -0.070227 0.081735 4.479403
							CHANNELS 3 Xrotation Yrotation Zrotation
							End Site
							{
								OFFSET 0 0 0
							}
						}
					}
				}
			}
		}
	}
	JOINT Spine_virtual
	{
		OFFSET 0.000000 0.000000 0.000000
		CHANNELS 3 Xrotation Yrotation Zrotation
		JOINT Spine
		{
			OFFSET 0.000000 6.876099 0.125700
			CHANNELS 3 Xrotation Yrotation Zrotation
			JOINT Spine1
			{
				OFFSET 0.000000 5.730043 0.104720
				CHANNELS 3 Xrotation Yrotation Zrotation
				JOINT Spine1_split
				{
					OFFSET 0.000000 5.730043 0.104720
					CHANNELS 3 Xrotation Yrotation Zrotation
					JOINT Spine2
					{
						OFFSET 0.000000 5.730043 0.104720
						CHANNELS 3 Xrotation Yrotation Zrotation
						JOINT Neck_virtual
						{
							OFFSET 0.000000 0.000000 0.000000
							CHANNELS 3 Xrotation Yrotation Zrotation
							JOINT Neck
							{
								OFFSET 0.000000 10.314075 0.188496
								CHANNELS 3 Xrotation Yrotation Zrotation
								JOINT Head
								{
									OFFSET 0.000000 7.643700 -2.377400
									CHANNELS 3 Xrotation Yrotation Zrotation
									JOINT HeadTop_End
									{
										OFFSET 0.000000 43.788605 -13.619600
										CHANNELS 3 Xrotation Yrotation Zrotation
										End Site
										{
											OFFSET 0 0 0
										}
									}
								}
							}
						}
						JOINT LeftShoulder_virtual
						{
							OFFSET 0.000000 0.000000 0.000000
							CHANNELS 3 Xrotation Yrotation Zrotation
							JOINT LeftShoulder
							{
								OFFSET 2.196100 4.412489 0.087492
								CHANNELS 3 Xrotation Yrotation Zrotation
								JOINT LeftShoulder_split
								{
									OFFSET 2.196100 4.412489 0.087492
									CHANNELS 3 Xrotation Yrotation Zrotation
									JOINT LeftArm
									{
										OFFSET 8.771219 -2.981674 -0.026999
										CHANNELS 3 Xrotation Yrotation Zrotation
										JOINT LeftForeArm
										{
											OFFSET 8.512804 0.000000 -0.000000
											CHANNELS 3 Xrotation Yrotation Zrotation
											JOINT LeftHand
											{
												OFFSET 18.484802 0.000000 -0.000000
												CHANNELS 3 Xrotation Yrotation Zrotation
												End Site
												{
													OFFSET 0 0 0
												}
											}
										}
									}
								}
							}
						}
						JOINT RightShoulder_virtual
						{
							OFFSET 0.000000 0.000000 0.000000
							CHANNELS 3 Xrotation Yrotation Zrotation
							JOINT RightShoulder
							{
								OFFSET -2.196100 4.412496 0.070690
								CHANNELS 3 Xrotation Yrotation Zrotation
								JOINT RightShoulder_split
								{
									OFFSET -2.196100 4.412496 0.070690
									CHANNELS 3 Xrotation Yrotation Zrotation
									JOINT RightArm
									{
										OFFSET -8.771282 -2.981682 -0.094208
										CHANNELS 3 Xrotation Yrotation Zrotation
										JOINT RightForeArm
										{
											OFFSET -8.494598 0.000000 0.000000
											CHANNELS 3 Xrotation Yrotation Zrotation
											JOINT RightHand
											{
												OFFSET -18.483803 0.000000 0.000001
												CHANNELS 3 Xrotation Yrotation Zrotation
												End Site
												{
													OFFSET 0 0 0
												}
											}
										}
									}
								}
							}
						}
					}
				}
			}
		}
	}
}
MOTION
Frames: 4
Frame Time: 0.03333333
1.459067 29.416786 2.231564 0.000000 0.000000 0.000000 5.384998 -38.021751 4.983555 -59.768930 5.880853 19.337577 36.391234 -21.849044 -3.587466 0.640719 -8.665411 -16.151917 -8.732637 0.584368 -0.662129 0.000000 0.000000 0.000000 3.064344 -33.518358 4.630559 -18.911949 1.267217 -38.528626 24.081867 -4.318782 1.327964 -25.907020 -24.294727 32.532136 10.898085 -6.628302 4.428853 0.000000 0.000000 0.000000 1.166998 -34.708197 2.324309 22.625196 -1.827990 -6.309572 6.190329 -1.946634 1.232445 4.695795 -19.443547 6.787461 0.000000 0.000000 0.000000 7.043218 -0.910295 -0.822185 16.729211 11.125705 14.992388 -34.081773 27.081034 20.503214 0.000000 0.000000 0.000000 8.524266 -1.417252 0.033687 -1.122734 -12.639122 -19.696691 -2.171977 -1.943417 -2.114125 -38.890202 30.678403 -14.817337 3.973517 -17.465492 -4.801596 0.000000 0.000000 0.000000 6.554769 -1.204579 -0.269472 -0.340215 -13.692073 23.715385 -12.779401 -3.597679 0.821426 17.552649 15.499468 34.689458 4.835140 52.813038 9.234052 0.000000 0.000000 0.000000 
0.453346 29.752497 2.034945 0.000000 0.000000 0.000000 5.741798 -34.429519 5.298605 -58.877699 10.617620 19.259557 36.816277 -23.449470 -4.057595 4.708759 -10.000993 -14.324594 -10.163911 0.128472 0.390436 0.000000 0.000000 0.000000 3.080716 -30.122418 5.230395 -15.159296 2.015472 -33.346353 30.745707 -5.832196 1.201918 -29.585968 -22.525365 27.202999 12.763014 -5.601495 5.710864 0.000000 0.000000 0.000000 0.440625 -31.469530 3.533213 20.444704 -1.663375 -6.835683 6.292461 -1.429664 1.507711 4.606232 -12.916301 6.305897 0.000000 0.000000 0.000000 5.869306 -0.615959 -0.575835 19.419490 10.465932 13.593245 -31.937551 25.491490 20.452373 0.000000 0.000000 0.000000 7.881247 -0.827583 0.109787 -0.575714 -9.992791 -19.752610 -1.071181 -0.997733 -1.021001 -42.056316 29.920986 -13.549172 2.431020 -24.469880 -5.460704 0.000000 0.000000 0.000000 6.136566 -0.780008 -0.197166 -1.384937 -11.030116 23.937438 -13.307087 0.225935 1.273088 15.958795 16.750875 35.819114 5.781319 52.315527 8.917833 0.000000 0.000000 0.000000 
-0.902673 30.280420 1.857676 0.000000 0.000000 0.000000 5.555668 -24.857946 6.239832 -55.971276 16.083548 15.937022 32.712853 -25.191804 -5.734076 14.031073 -13.041945 -12.036697 -11.010897 -0.610977 2.296208 0.000000 0.000000 0.000000 3.091169 -21.942637 6.580748 -8.795669 4.110332 -27.349853 40.959347 -3.449145 0.305147 -23.571205 -16.486577 30.835589 -6.830750 -4.408532 4.460739 0.000000 0.000000 0.000000 0.643816 -22.778635 5.750789 16.835388 -0.760030 -7.078899 5.349368 0.043343 2.350760 4.911843 -9.182558 4.375347 0.000000 0.000000 0.000000 3.783083 0.787119 0.414423 23.906098 9.475555 11.469147 -24.992140 21.524675 18.159974 0.000000 0.000000 0.000000 6.163312 0.954371 0.938437 0.063501 -6.160297 -18.871025 -0.122528 -0.060744 -0.128433 -40.261414 26.209036 -13.998775 4.113458 -34.537651 -3.325324 0.000000 0.000000 0.000000 4.816688 0.879302 0.679569 -2.113740 -8.186946 24.786828 -12.306456 2.079585 0.282058 14.193378 17.311693 35.216978 10.271791 50.191536 5.810588 0.000000 0.000000 0.000000 
-2.270590 30.785599 1.924711 0.000000 0.000000 0.000000 4.722842 -12.146091 7.529934 -50.859095 20.530160 9.612402 25.520811 -25.756700 -7.947130 25.729449 -15.052729 -7.469041 -13.518023 -1.620132 5.014375 0.000000 0.000000 0.000000 2.996847 -10.442767 8.110473 0.849731 7.208769 -20.462863 48.549517 0.424904 -2.114554 -14.568980 -6.770600 36.194569 -41.325759 -2.544216 3.298294 0.000000 0.000000 0.000000 0.812850 -10.687340 8.261781 12.408844 0.740445 -6.812181 3.532697 2.213988 3.464653 4.514437 -6.711000 2.140762 0.000000 0.000000 0.000000 1.159315 2.985371 1.850935 28.694379 8.665023 9.036497 -15.575263 15.677948 15.045903 0.000000 0.000000 0.000000 3.651172 3.496709 2.107320 0.501249 -1.879266 -17.264693 0.941574 1.109784 0.834588 -35.869565 18.765636 -15.317667 8.706804 -40.856952 1.871766 0.000000 0.000000 0.000000 2.793282 3.391765 1.987373 -2.527663 -5.707045 25.670672 -9.986957 1.570414 -1.079056 13.279353 16.403640 32.587823 16.571933 45.846613 1.403349 0.000000 0.000000 0.000000 
